<svg width="25" height="25" viewBox="0 0 25 25" fill="none" xmlns="http://www.w3.org/2000/svg">
<g clip-path="url(#clip0_403_249)">
<path d="M12.4929 10.2216V15.0598H19.2165C18.9212 16.6158 18.0353 17.9333 16.7065 18.8192L20.761 21.9652C23.1234 19.7846 24.4863 16.5818 24.4863 12.7771C24.4863 11.8912 24.4068 11.0394 24.2591 10.2217L12.4929 10.2216Z" fill="#5B5F65"/>
<path d="M5.49146 14.871L4.577 15.571L1.34009 18.0923C3.39577 22.1696 7.60906 24.9862 12.4927 24.9862C15.8658 24.9862 18.6937 23.8732 20.7608 21.9652L16.7063 18.8192C15.5932 19.5688 14.1735 20.0231 12.4927 20.0231C9.24451 20.0231 6.48474 17.8311 5.49657 14.8782L5.49146 14.871Z" fill="#5B5F65"/>
<path d="M1.34008 6.89392C0.488318 8.57475 0 10.4715 0 12.493C0 14.5146 0.488318 16.4114 1.34008 18.0922C1.34008 18.1035 5.49696 14.8667 5.49696 14.8667C5.2471 14.1171 5.09941 13.3221 5.09941 12.4929C5.09941 11.6637 5.2471 10.8687 5.49696 10.1192L1.34008 6.89392Z" fill="#5B5F65"/>
<path d="M12.493 4.97454C14.3329 4.97454 15.9683 5.61054 17.2744 6.83716L20.852 3.25962C18.6827 1.23803 15.8662 0 12.493 0C7.60932 0 3.39577 2.80528 1.34009 6.89396L5.49684 10.1195C6.48488 7.16651 9.24476 4.97454 12.493 4.97454Z" fill="#5B5F65"/>
</g>
<defs>
<clipPath id="clip0_403_249">
<rect width="24.9863" height="24.9863" fill="white"/>
</clipPath>
</defs>
</svg>
