<svg width="25" height="25" viewBox="0 0 25 25" fill="none" xmlns="http://www.w3.org/2000/svg">
<g clip-path="url(#clip0_403_250)">
<path d="M23.1367 0H1.84469C0.824743 0 0 0.805223 0 1.80077V23.1807C0 24.1762 0.824743 24.9863 1.84469 24.9863H23.1367C24.1567 24.9863 24.9863 24.1762 24.9863 23.1855V1.80077C24.9863 0.805223 24.1567 0 23.1367 0ZM7.41293 21.292H3.70402V9.36498H7.41293V21.292ZM5.55848 7.7399C4.36772 7.7399 3.40634 6.77851 3.40634 5.59264C3.40634 4.40676 4.36772 3.44538 5.55848 3.44538C6.74435 3.44538 7.70574 4.40676 7.70574 5.59264C7.70574 6.77363 6.74435 7.7399 5.55848 7.7399ZM21.292 21.292H17.588V15.4944C17.588 14.1134 17.5636 12.3321 15.6604 12.3321C13.7327 12.3321 13.4399 13.8401 13.4399 15.3968V21.292H9.74075V9.36498H13.2935V10.9949H13.3423C13.8352 10.058 15.0455 9.06729 16.8462 9.06729C20.5991 9.06729 21.292 11.5366 21.292 14.7478V21.292Z" fill="#5B5F65"/>
</g>
<defs>
<clipPath id="clip0_403_250">
<rect width="24.9863" height="24.9863" fill="white"/>
</clipPath>
</defs>
</svg>
