<svg width="25" height="25" viewBox="0 0 25 25" fill="none" xmlns="http://www.w3.org/2000/svg">
<path fill-rule="evenodd" clip-rule="evenodd" d="M24.9863 12.4932C24.9863 19.3929 19.3929 24.9863 12.4932 24.9863C5.59337 24.9863 0 19.3929 0 12.4932C0 5.59337 5.59337 0 12.4932 0C19.3929 0 24.9863 5.59337 24.9863 12.4932ZM12.9408 9.22299C11.7257 9.72841 9.29713 10.7745 5.65512 12.3613C5.06372 12.5964 4.75391 12.8265 4.72571 13.0515C4.67805 13.4317 5.15416 13.5814 5.80252 13.7853C5.89071 13.813 5.98209 13.8417 6.07577 13.8722C6.71365 14.0795 7.57171 14.3221 8.01778 14.3318C8.42241 14.3405 8.87402 14.1737 9.37261 13.8313C12.7755 11.5343 14.532 10.3733 14.6423 10.3483C14.7201 10.3306 14.8279 10.3084 14.901 10.3733C14.974 10.4382 14.9668 10.5612 14.9591 10.5942C14.9119 10.7953 13.043 12.5328 12.0758 13.432C11.7743 13.7123 11.5604 13.9111 11.5167 13.9566C11.4187 14.0583 11.3189 14.1545 11.223 14.247C10.6304 14.8183 10.186 15.2467 11.2476 15.9462C11.7578 16.2824 12.166 16.5604 12.5733 16.8378C13.018 17.1407 13.4617 17.4428 14.0357 17.819C14.1819 17.9149 14.3216 18.0145 14.4576 18.1115C14.9752 18.4805 15.4402 18.812 16.0147 18.7591C16.3486 18.7284 16.6934 18.4145 16.8685 17.4783C17.2824 15.2657 18.0959 10.4718 18.284 8.49636C18.3004 8.32328 18.2797 8.10178 18.2631 8.00454C18.2464 7.90731 18.2116 7.76877 18.0853 7.66621C17.9356 7.54476 17.7045 7.51914 17.6011 7.52096C17.1313 7.52924 16.4103 7.77992 12.9408 9.22299Z" fill="#5B5F65"/>
</svg>
